<svg id="Logo" xmlns="http://www.w3.org/2000/svg" width="391.044" height="91.787" viewBox="0 0 391.044 91.787">
  <path id="Path_298" data-name="Path 298" d="M44.093,2.1l5,41.157H39.184L36.293,19.719,27.484,43.257H21.565L12.755,19.765,9.773,43.3H0L5.093,2.1h9.773l9.773,24.5L34.366,2.1Z" transform="translate(0 -1.136)" fill="#fff"/>
  <path id="Path_299" data-name="Path 299" d="M135.94,2.1h11.516L131.765,26.6V43.257h-9.819V26.6L106.3,2.1h11.517L126.9,17.792Z" transform="translate(-57.527 -1.136)" fill="#fff"/>
  <path id="Path_300" data-name="Path 300" d="M258.028,34.32a12.212,12.212,0,0,0,9.911-4.772l3.808,8.626a17.773,17.773,0,0,1-6.332,3.625,22.457,22.457,0,0,1-7.387,1.331A22.209,22.209,0,0,1,242.107,36.8,20.3,20.3,0,0,1,235.5,21.565a20.226,20.226,0,0,1,6.607-15.233A22.209,22.209,0,0,1,258.028,0a22.634,22.634,0,0,1,7.433,1.285,18.608,18.608,0,0,1,6.332,3.625l-3.808,8.718a12.089,12.089,0,0,0-9.911-4.772,12.225,12.225,0,0,0-8.993,3.716,12.3,12.3,0,0,0-3.716,8.993,12.225,12.225,0,0,0,3.716,8.993A12.165,12.165,0,0,0,258.028,34.32Z" transform="translate(-129.061 0)" fill="#fff"/>
  <path id="Path_301" data-name="Path 301" d="M349.065,2.1h9.819V43.257h-9.819V27.106H333.419V43.257H323.6V2.1h9.819V18.251h15.692V2.1Z" transform="translate(-177.336 -1.136)" fill="#fff"/>
  <path id="Path_302" data-name="Path 302" d="M441.374,10.955H424.719V18.3h13.719v8.809H424.719v7.341h16.655v8.809H414.9V2.1h26.474Z" transform="translate(-227.302 -1.136)" fill="#fff"/>
  <path id="Path_303" data-name="Path 303" d="M524.639,2.1l4.955,41.157H519.73l-2.891-23.538-8.855,23.538h-5.919L493.21,19.719l-2.982,23.538H480.5L485.593,2.1h9.773l9.773,24.5,9.773-24.5h9.727Z" transform="translate(-263.45 -1.136)" fill="#fff"/>
  <path id="Path_304" data-name="Path 304" d="M607.319,43.257H597.5V2.1h9.819Z" transform="translate(-327.167 -1.136)" fill="#fff"/>
  <path id="Path_305" data-name="Path 305" d="M650.528,34.32a12.212,12.212,0,0,0,9.911-4.772l3.808,8.626a17.773,17.773,0,0,1-6.332,3.625,22.456,22.456,0,0,1-7.387,1.331A22.209,22.209,0,0,1,634.607,36.8,20.226,20.226,0,0,1,628,21.565a20.226,20.226,0,0,1,6.607-15.233A22.209,22.209,0,0,1,650.528,0a22.633,22.633,0,0,1,7.433,1.285,18.609,18.609,0,0,1,6.332,3.625l-3.808,8.718a12.089,12.089,0,0,0-9.911-4.772,12.225,12.225,0,0,0-8.993,3.716,12.3,12.3,0,0,0-3.717,8.993,12.225,12.225,0,0,0,3.717,8.993A12.092,12.092,0,0,0,650.528,34.32Z" transform="translate(-344.163 0)" fill="#fff"/>
  <path id="Path_306" data-name="Path 306" d="M741.5,43.257l-2.845-6.882h-16.7l-2.615,6.882H708.6L725.118,2.1h9.543L751.73,43.257ZM725.347,27.611h9.681l-4.818-12.755Z" transform="translate(-388.857 -1.136)" fill="#fff"/>
  <path id="Path_307" data-name="Path 307" d="M818.273,34.447h15.692v8.809H808.5V2.1h9.819V34.447Z" transform="translate(-442.92 -1.136)" fill="#fff"/>
  <path id="Path_308" data-name="Path 308" d="M154.42,152.057H143.133l-9.176-13.214h-4.038v13.214H120.1V110.9h16.655c5.185,0,9.085,1.239,11.746,3.716a13.163,13.163,0,0,1,3.946,10,14.771,14.771,0,0,1-2.248,8.075A12.474,12.474,0,0,1,144,137.879Zm-24.5-32.3v10.278h6.791a6.573,6.573,0,0,0,4.221-1.376,4.521,4.521,0,0,0,1.7-3.762,4.6,4.6,0,0,0-1.652-3.9,6.924,6.924,0,0,0-4.267-1.239Z" transform="translate(-64.995 -61.279)" fill="#fff"/>
  <path id="Path_309" data-name="Path 309" d="M202.969,115.132a22.383,22.383,0,0,1,31.2,0,21.169,21.169,0,0,1,0,30.466,22.383,22.383,0,0,1-31.2,0,21.169,21.169,0,0,1,0-30.466Zm6.928,24.226a11.975,11.975,0,0,0,17.344,0,13.088,13.088,0,0,0,0-17.986,11.975,11.975,0,0,0-17.344,0,13.088,13.088,0,0,0,0,17.986Z" transform="translate(-107.718 -60.143)" fill="#fff"/>
  <path id="Path_310" data-name="Path 310" d="M342.539,110.9l4.955,41.157H337.63l-2.891-23.538-8.855,23.538h-5.919l-8.855-23.538-2.982,23.538H298.4l5.093-41.157h9.773l9.773,24.5,9.773-24.5h9.727Z" transform="translate(-163.607 -61.279)" fill="#fff"/>
  <path id="Path_311" data-name="Path 311" d="M440.9,152.057l-2.845-6.882h-16.7l-2.615,6.882H408L424.518,110.9h9.544l17.068,41.157Zm-16.2-15.646h9.681l-4.818-12.755Z" transform="translate(-223.65 -61.279)" fill="#fff"/>
  <path id="Path_312" data-name="Path 312" d="M536.247,110.9h9.819v41.157h-9.819l-18.628-25.465v25.465H507.8V110.9h9.865L536.2,136.273V110.9Z" transform="translate(-278.309 -61.279)" fill="#fff"/>
  <path id="Path_313" data-name="Path 313" d="M622.728,143.12a12.212,12.212,0,0,0,9.911-4.772l3.808,8.626a17.773,17.773,0,0,1-6.332,3.625,22.456,22.456,0,0,1-7.387,1.331,22.209,22.209,0,0,1-15.921-6.332,20.864,20.864,0,0,1,0-30.466,22.209,22.209,0,0,1,15.921-6.332,22.633,22.633,0,0,1,7.433,1.285,18.609,18.609,0,0,1,6.332,3.625l-3.808,8.718a12.089,12.089,0,0,0-9.911-4.772,12.733,12.733,0,0,0-.046,25.465Z" transform="translate(-328.927 -60.143)" fill="#fff"/>
  <path id="Path_314" data-name="Path 314" d="M714.774,119.755H698.119V127.1h13.719v8.809H698.119v7.341h16.655v8.809H688.3V110.9h26.474Z" transform="translate(-377.871 -61.279)" fill="#fff"/>
</svg>
